# Blender 4.2.1 LTS
# www.blender.org
mtllib cubo_facce.mtl
o Cube
v 1.000000 1.000000 -1.000000
v 1.000000 -1.000000 -1.000000
v 1.000000 1.000000 1.000000
v 1.000000 -1.000000 1.000000
v -1.000000 1.000000 -1.000000
v -1.000000 -1.000000 -1.000000
v -1.000000 1.000000 1.000000
v -1.000000 -1.000000 1.000000
vn -0.0000 1.0000 -0.0000
vn -0.0000 -0.0000 1.0000
vn -1.0000 -0.0000 -0.0000
vn -0.0000 -1.0000 -0.0000
vn 1.0000 -0.0000 -0.0000
vn -0.0000 -0.0000 -1.0000
vt 1.000000 1.000000
vt 0.000000 0.000000
vt 1.000000 0.000000
vt 0.000000 1.000000
s 0
usemtl Material.013
f 2/1/4 8/2/4 6/3/4
f 2/1/4 4/4/4 8/2/4
usemtl Material.003
f 3/4/2 8/3/2 4/1/2
f 3/4/2 7/2/2 8/3/2
usemtl Material.002
f 7/4/3 6/3/3 8/1/3
f 7/4/3 5/2/3 6/3/3
usemtl Material.004
f 1/4/5 4/3/5 2/1/5
f 1/4/5 3/2/5 4/3/5
usemtl Material.010
f 5/1/1 3/2/1 1/3/1
f 5/1/1 7/4/1 3/2/1
usemtl Material.012
f 5/4/6 2/3/6 6/1/6
f 5/4/6 1/2/6 2/3/6
